<?xml version="1.0" encoding="UTF-8" standalone="no"?>
<svg width="106px" height="25px" viewBox="0 0 106 25" version="1.1" xmlns="http://www.w3.org/2000/svg" xmlns:xlink="http://www.w3.org/1999/xlink">
    <!-- Generator: Sketch 3.8.3 (29802) - http://www.bohemiancoding.com/sketch -->
    <title>wmt_h_r_c</title>
    <desc>Created with Sketch.</desc>
    <defs></defs>
    <g id="Page-1" stroke="none" stroke-width="1" fill="none" fill-rule="evenodd">
        <g id="wmt_h_r_c">
            <path d="M59.4611939,15.8883929 C59.4611939,16.0889286 59.4431636,16.2957143 59.386887,16.4766071 C59.1550422,17.2294643 58.3597032,17.8657143 57.3653019,17.8657143 C56.5360877,17.8657143 55.8775245,17.4044643 55.8775245,16.4285714 C55.8775245,14.9358929 57.5534368,14.5232143 59.4611939,14.5328571 L59.4611939,15.8883929 L59.4611939,15.8883929 Z M62.4542327,13.2876786 C62.4542327,10.825 61.3815177,8.65892857 57.7565059,8.65892857 C55.8951906,8.65892857 54.4177943,9.17160714 53.6115278,9.62803571 L54.2017943,11.6071429 C54.9383069,11.1514286 56.1130118,10.7741071 57.223973,10.7741071 C59.062887,10.7694643 59.3644857,11.7944643 59.3644857,12.4517857 L59.3644857,12.6073214 C55.3551906,12.6014286 52.8220169,13.9617857 52.8220169,16.735 C52.8220169,18.4282143 54.1121889,20.015 56.3554199,20.015 C57.7344688,20.015 58.8889578,19.4751786 59.5793929,18.6103571 L59.6476897,18.6103571 C59.6476897,18.6103571 60.1055514,20.4883929 62.6296189,19.7701786 C62.4968499,18.9885714 62.4542327,18.1553571 62.4542327,17.1516071 L62.4542327,13.2876786 L62.4542327,13.2876786 Z" id="Fill-1" fill="#FFFFFF"></path>
            <path d="M0,5.30589286 C0,5.30589286 2.61913659,15.8294643 3.03711298,17.5376786 C3.5250253,19.5314286 4.40414165,20.265 6.93877234,19.7701786 L8.57443508,13.2451786 C8.9889511,11.6244643 9.26705565,10.4692857 9.53350422,8.82071429 L9.58031029,8.82071429 C9.76753457,10.4855357 10.0343474,11.6296429 10.3754671,13.2510714 C10.3754671,13.2510714 11.0411332,16.2128571 11.3820708,17.7685714 C11.7239191,19.32375 12.6751568,20.30375 15.157882,19.7701786 L19.0549882,5.30589286 L15.9086003,5.30589286 L14.5779966,11.5592857 C14.2203035,13.3794643 13.8959393,14.8019643 13.6456998,16.4671429 L13.6010793,16.4671429 C13.3734233,14.8180357 13.0842091,13.4525 12.7205059,11.6791071 L11.3350826,5.30589286 L8.05701855,5.30589286 L6.57525126,11.5185714 C6.15545363,13.4064286 5.76261046,14.9307143 5.51291737,16.5394643 L5.46793255,16.5394643 C5.21222934,15.0244643 4.87147386,13.10875 4.50267116,11.28125 C4.50267116,11.28125 3.62227993,6.8375 3.31339629,5.30589286 L0,5.30589286" id="Fill-2" fill="#FFFFFF"></path>
            <path d="M25.0040944,15.8883929 C25.0040944,16.0889286 24.9864283,16.2957143 24.9297875,16.4766071 C24.6979427,17.2294643 23.9026037,17.8657143 22.9082024,17.8657143 C22.0791703,17.8657143 21.4206071,17.4044643 21.4206071,16.4285714 C21.4206071,14.9358929 23.0963373,14.5232143 25.0040944,14.5328571 L25.0040944,15.8883929 L25.0040944,15.8883929 Z M27.9965868,13.2876786 C27.9965868,10.825 26.924054,8.65892857 23.2995885,8.65892857 C21.4379089,8.65892857 19.9601484,9.17160714 19.1546105,9.62803571 L19.7441484,11.6071429 C20.4813895,11.1514286 21.6550017,10.7741071 22.7665093,10.7741071 C24.6066981,10.7694643 24.9077504,11.7944643 24.9077504,12.4517857 L24.9077504,12.6073214 C20.8979089,12.6014286 18.3650995,13.9617857 18.3650995,16.735 C18.3650995,18.4282143 19.654543,20.015 21.8964992,20.015 C23.2766408,20.015 24.4307656,19.4751786 25.1224755,18.6103571 L25.190226,18.6103571 C25.190226,18.6103571 25.6484519,20.4883929 28.1721551,19.7701786 C28.0395683,18.9885714 27.9965868,18.1553571 27.9965868,17.1516071 L27.9965868,13.2876786 L27.9965868,13.2876786 Z" id="Fill-3" fill="#FFFFFF"></path>
            <polyline id="Fill-4" fill="#FFFFFF" points="32.9904486 16.6991071 32.9904486 5.30589286 29.99486 5.30589286 29.99486 19.7701786 32.9904486 19.7701786 32.9904486 16.6991071"></polyline>
            <path d="M72.1849781,5.30589286 L72.1849781,15.97625 C72.1849781,17.4473214 72.4674536,18.4780357 73.0715616,19.1076786 C73.5993592,19.6583929 74.4686408,20.015 75.5103946,20.015 C76.3960675,20.015 77.2675346,19.8501786 77.678226,19.7001786 L77.6396155,17.405 C77.3340101,17.47875 76.9825093,17.5376786 76.5016998,17.5376786 C75.4812546,17.5376786 75.1390422,16.8967857 75.1390422,15.5758929 L75.1390422,11.49375 L77.7479798,11.49375 L77.7479798,8.72625 L75.1390422,8.72625 L75.1390422,5.30589286 L72.1849781,5.30589286" id="Fill-5" fill="#FFFFFF"></path>
            <path d="M64.4517774,8.90410714 L64.4517774,19.7701786 L67.5420708,19.7701786 L67.5420708,14.20625 C67.5420708,13.9060714 67.5606476,13.6442857 67.6090927,13.4042857 C67.8376594,12.23875 68.7470084,11.49375 70.0519325,11.49375 C70.410172,11.49375 70.6664216,11.5317857 70.9437976,11.5710714 L70.9437976,8.72625 C70.7112243,8.68017857 70.5522293,8.65892857 70.2628331,8.65892857 C69.1096189,8.65892857 67.7975919,9.38892857 67.2468465,10.9535714 L67.162887,10.9535714 L67.162887,8.90410714 L64.4517774,8.90410714" id="Fill-6" fill="#FFFFFF"></path>
            <path d="M35.0885261,8.90410714 L35.0885261,19.7701786 L38.0999595,19.7701786 L38.0999595,13.3976786 C38.0999595,13.0989286 38.1349275,12.7832143 38.2412884,12.5083929 C38.4907993,11.8667857 39.0994604,11.11625 40.0714604,11.11625 C41.286597,11.11625 41.8551906,12.1235714 41.8551906,13.5773214 L41.8551906,19.7701786 L44.8635278,19.7701786 L44.8635278,13.3207143 C44.8635278,13.0355357 44.9034132,12.6921429 44.9890118,12.44 C45.2363373,11.7101786 45.8925329,11.11625 46.796054,11.11625 C48.027946,11.11625 48.6193052,12.1058929 48.6193052,13.8164286 L48.6193052,19.7701786 L51.6296459,19.7701786 L51.6296459,13.3705357 C51.6296459,9.99535714 49.8819764,8.65892857 47.9088364,8.65892857 C47.0350017,8.65892857 46.3452951,8.87375 45.7216998,9.24910714 C45.1975447,9.56446429 44.7282091,10.0125 44.3180641,10.6025 L44.2736256,10.6025 C43.7975514,9.43142857 42.6780304,8.65892857 41.2193929,8.65892857 C39.3447825,8.65892857 38.5026374,9.59035714 37.9917774,10.3805357 L37.9471568,10.3805357 L37.9471568,8.90410714 L35.0885261,8.90410714" id="Fill-7" fill="#FFFFFF"></path>
            <path d="M93.9426981,8.46607143 C94.5382462,8.46607143 95.0285261,8.16303571 95.0948196,7.77017857 L95.6834469,1.24928571 C95.6834469,0.604642857 94.9134233,0.0751785714 93.9445194,0.0751785714 C92.9774368,0.0751785714 92.2085059,0.604642857 92.2085059,1.24928571 L92.7958583,7.77017857 C92.8606948,8.16303571 93.3515211,8.46607143 93.9448836,8.46607143 L93.9426981,8.46607143" id="Fill-8" fill="#F4B53C"></path>
            <path d="M90.3479191,10.5033929 C90.6467858,9.99821429 90.623656,9.43 90.3091265,9.17803571 L84.8424688,5.41875 C84.2746037,5.09625 83.4218954,5.48446429 82.938172,6.30678571 C82.4529916,7.12803571 82.5389545,8.04589286 83.1066374,8.36785714 L89.1590084,11.13125 C89.5380101,11.2694643 90.053059,11.0048214 90.3501046,10.4998214 L90.3479191,10.5033929" id="Fill-9" fill="#F4B53C"></path>
            <path d="M97.540027,10.4998214 C97.8381653,11.0048214 98.351575,11.2694643 98.7305767,11.13125 L104.783858,8.36785714 C105.353909,8.04589286 105.435683,7.12803571 104.953781,6.30678571 C104.467872,5.48446429 103.614253,5.09625 103.047481,5.41875 L97.5806408,9.17803571 C97.2679325,9.43 97.2448027,9.99821429 97.5422125,10.5033929 L97.540027,10.4998214" id="Fill-10" fill="#F4B53C"></path>
            <path d="M93.9426981,16.61125 C94.5382462,16.61125 95.0285261,16.9130357 95.0948196,17.3053571 L95.6834469,23.8258929 C95.6834469,24.4716071 94.9134233,25 93.9445194,25 C92.9774368,25 92.2085059,24.4716071 92.2085059,23.8258929 L92.7958583,17.3053571 C92.8606948,16.9130357 93.3515211,16.61125 93.9448836,16.61125 L93.9426981,16.61125" id="Fill-11" fill="#F4B53C"></path>
            <path d="M97.540027,14.5748214 C97.8381653,14.0689286 98.351575,13.8060714 98.7305767,13.9458929 L104.783858,16.7060714 C105.353909,17.0294643 105.435683,17.9476786 104.953781,18.7698214 C104.467872,19.5894643 103.614253,19.9789286 103.047481,19.6575 L97.5806408,15.90125 C97.2679325,15.64625 97.2448027,15.0783929 97.5422125,14.57375 L97.540027,14.5748214" id="Fill-12" fill="#F4B53C"></path>
            <path d="M90.3479191,14.57375 C90.6467858,15.0783929 90.623656,15.64625 90.3091265,15.90125 L84.8424688,19.6575 C84.2746037,19.9789286 83.4218954,19.5894643 82.938172,18.7698214 C82.4529916,17.9476786 82.5389545,17.0294643 83.1066374,16.7060714 L89.1590084,13.9458929 C89.5380101,13.8060714 90.053059,14.0689286 90.3504688,14.5748214 L90.3479191,14.57375" id="Fill-13" fill="#F4B53C"></path>
        </g>
    </g>
</svg>